:SAMPLES-PER-SECOND 30
:FULLY-SPECIFIED
:DEGREES
589
root  -61.1805 32.3584 -66.9484 96.204 -84.5356 -89.5187
RightUpLeg  -16.3681 -10.1095 8.32599
RightLeg  47.6065 6.73591 6.40859
RightFoot  -3.55152 -0.0250734 -0.431267
RightToes  -44.3911 -0.254477 -0.33856
Spine  8.44569 1.02895 2.77526
Spine1  16.401 4.11422 1.71918
HEad  36.8313 11.1882 -6.91957
LeftShoulder1  0 -2.42657e-020 -4.95415e-022
LeftArm  -3.27076 8.67271 -88.5866
LeftForeArm  31.903 -50.2408 -12.2588
LeftHand  -0.470137 -5.39967 9.58718
RightShoulder  0 2.42657e-020 1.07489e-018
RightArm  -38.5516 13.8084 57.466
RightForeArm  26.9569 41.9755 9.13706
RightHand  0.454439 25.9546 2.34233
LeftUpLeg  -40.6078 22.0794 -20.7473
LeftLeg  20.4126 -6.84531 -2.05434
LeftFoot  19.8909 0.362708 -2.06832
LeftToes  -20.5378 3.33339e-006 -4.73431e-007
590
root  -62.8889 31.8481 -67.1622 87.2823 -82.8642 -81.74
RightUpLeg  -17.1985 -13.2962 8.22501
RightLeg  56.4104 8.82987 11.3429
RightFoot  1.27917 -0.00369409 0.708074
RightToes  -54.2511 -0.341117 -0.380713
Spine  8.23502 1.4304 2.93914
Spine1  16.1511 5.21649 1.53794
HEad  36.9876 14.5567 -7.57742
LeftShoulder1  0 -2.42657e-020 -4.95415e-022
LeftArm  -5.6772 12.4592 -88.5524
LeftForeArm  32.6311 -50.5425 -12.3934
LeftHand  -0.477919 -5.4949 9.57613
RightShoulder  0 2.42657e-020 1.07489e-018
RightArm  -38.6886 17.0171 53.6942
RightForeArm  32.9387 40.441 8.64743
RightHand  -0.39151 25.2196 -1.38031
LeftUpLeg  -38.8111 21.49 -20.6814
LeftLeg  22.609 -1.60989 -0.554651
LeftFoot  9.92251 -0.000951217 0.0109487
LeftToes  32.1018 3.33339e-006 -4.73431e-007
591
root  -64.4765 30.9988 -67.3427 87.9777 -81.6819 -84.3044
RightUpLeg  -19.6136 -15.2552 6.76337
RightLeg  68.4911 9.00041 18.2738
RightFoot  6.9231 -0.184523 3.42701
RightToes  -56.4672 -0.361503 -0.388095
Spine  9.00029 2.92298 3.1794
Spine1  17.6481 9.17454 0.585007
HEad  35.8228 16.1903 -7.54022
LeftShoulder1  0 -2.42657e-020 -4.95415e-022
LeftArm  -6.77671 13.2134 -88.6369
LeftForeArm  30.9707 -49.4963 -11.9338
LeftHand  -0.434188 -5.13413 9.30406
RightShoulder  0 2.42657e-020 1.07489e-018
RightArm  -43.8767 20.981 50.2174
RightForeArm  29.7814 37.8218 7.86949
RightHand  0.413662 25.0295 2.23404
LeftUpLeg  -38.0572 14.8514 -16.2847
LeftLeg  31.3433 6.69305 3.49199
LeftFoot  -2.23875 -0.0016721 -0.0855854
LeftToes  33.5072 3.33339e-006 -4.73431e-007
592
root  -65.8058 29.9054 -67.4851 88.7518 -81.635 -87.0888
RightUpLeg  -23.4597 -15.4925 3.888
RightLeg  80.3449 5.95737 23.3363
RightFoot  10.656 -0.542144 6.18547
RightToes  -55.558 -0.353105 -0.385162
Spine  10.4561 4.79491 3.36481
Spine1  20.0621 14.1084 -0.496363
HEad  34.0745 15.4858 -7.51099
LeftShoulder1  0 -2.42657e-020 -4.95415e-022
LeftArm  -5.2933 10.4758 -88.3058
LeftForeArm  29.2123 -46.3435 -10.6622
LeftHand  -0.394638 -4.81544 9.00767
RightShoulder  0 2.42657e-020 1.07489e-018
RightArm  -46.7375 19.605 46.7793
RightForeArm  36.0733 34.1021 6.85025
RightHand  -3.67887 44.774 -8.54735
LeftUpLeg  -40.8064 10.2217 -13.8628
LeftLeg  45.5346 8.62556 7.6452
LeftFoot  -10.9235 -0.194622 -2.03526
LeftToes  30.7609 3.33339e-006 -4.73431e-007
593
root  -66.9204 29.0006 -67.4192 77.0504 -82.0729 -75.7283
RightUpLeg  -28.2257 -16.5712 0.201905
RightLeg  87.3835 2.43226 20.1998
RightFoot  5.86889 -0.179663 3.8809
RightToes  -52.229 -0.322778 -0.373294
Spine  11.6755 6.2145 3.18269
Spine1  22.023 17.7472 -1.55609
HEad  31.3791 13.2148 -7.11647
LeftShoulder1  0 -2.42657e-020 -4.95415e-022
LeftArm  -3.72209 4.25375 -88.8113
LeftForeArm  29.6944 -38.7824 -8.14437
LeftHand  -0.401664 -6.0173 7.26927
RightShoulder  0 2.42657e-020 1.07489e-018
RightArm  -56.1993 25.1549 46.6229
RightForeArm  37.3695 30.4745 5.94489
RightHand  -2.81708 38.0732 -7.78343
LeftUpLeg  -42.8574 11.456 -15.6884
LeftLeg  53.1132 6.34643 7.34874
LeftFoot  -16.7535 -0.391688 -2.65951
LeftToes  33.1829 3.33339e-006 -4.73431e-007
594
root  -67.8258 28.1894 -67.282 57.3076 -80.6727 -55.2631
RightUpLeg  -33.1473 -18.2433 -2.82957
RightLeg  90.6945 0.912482 14.961
RightFoot  2.38016 -0.0438774 2.48873
RightToes  -46.7265 -0.274322 -0.349882
Spine  12.5028 6.55234 3.32223
Spine1  23.2809 18.6908 -1.37829
HEad  32.147 11.0278 -7.5584
LeftShoulder1  0 -2.42657e-020 -4.95415e-022
LeftArm  -5.09218 -0.786761 -90.9977
LeftForeArm  34.4085 -32.7232 -6.49594
LeftHand  -0.371214 -7.26157 5.48033
RightShoulder  0 2.42657e-020 1.07489e-018
RightArm  -57.261 30.1222 45.2228
RightForeArm  42.8765 25.6131 4.82978
RightHand  -1.23742 27.2356 -4.73581
LeftUpLeg  -44.9976 10.6086 -16.7903
LeftLeg  59.3906 4.13185 6.02122
LeftFoot  -20.6907 -0.431878 -2.36551
LeftToes  34.283 3.33339e-006 -4.73431e-007
595
root  -68.5955 27.6389 -67.1732 44.4382 -77.769 -41.8726
RightUpLeg  -36.6127 -18.5451 -5.00595
RightLeg  90.0514 0.700143 9.18661
RightFoot  -0.588965 0.00731952 1.80371
RightToes  -39.8927 -0.217627 -0.314515
Spine  13.5414 6.60985 3.92037
Spine1  25.0295 18.794 -0.210703
HEad  33.419 8.83003 -6.95783
LeftShoulder1  0 -2.42657e-020 -4.95415e-022
LeftArm  -5.7651 -4.76624 -93.5697
LeftForeArm  38.4874 -29.1161 -5.62051
LeftHand  -0.456513 -7.74505 6.37202
RightShoulder  0 2.42657e-020 1.07489e-018
RightArm  -51.4092 32.8269 44.0421
RightForeArm  49.2118 19.585 3.5681
RightHand  -0.721736 27.1452 -2.61949
LeftUpLeg  -46.2563 8.57608 -16.9131
LeftLeg  64.3449 2.9428 5.20696
LeftFoot  -22.7067 -0.392413 -1.9542
LeftToes  34.1224 3.33339e-006 -4.73431e-007
